<svg width="32" height="29" viewBox="0 0 32 29" fill="none" xmlns="http://www.w3.org/2000/svg">
<rect width="18.4441" height="2.53155" transform="matrix(-0.592815 0.805339 0.789456 0.613807 29.7568 0.242676)" fill="white"/>
<rect width="1.75577" height="2.53155" transform="matrix(-0.592815 0.805339 0.789456 0.613807 18.0459 16.1512)" fill="white"/>
<path fill-rule="evenodd" clip-rule="evenodd" d="M14.5923 20.8463L16.4708 18.2944L18.4693 19.8483L17.7347 20.8463L14.5923 20.8463ZM14.065 21.5627L14.0649 21.5628L14.065 21.5628L14.065 21.5627Z" fill="white"/>
<path d="M20.3267 10.5448L0.278406 10.5448L0.278406 13.1203L18.4471 13.1203L20.3267 10.5448Z" fill="white"/>
<path d="M30.3494 10.5448L27.008 10.5448L25.3373 13.1203L30.3494 13.1203L30.3494 10.5448Z" fill="white"/>
<rect width="30.0724" height="2.57554" transform="matrix(-1 -8.98476e-08 -8.50634e-08 1 30.3494 25.9982)" fill="white"/>
<rect width="18.0288" height="2.50603" transform="matrix(-4.25317e-08 -1 -1 4.49238e-08 2.78467 28.5739)" fill="white"/>
<rect width="16.741" height="2.50603" transform="matrix(-4.25317e-08 -1 -1 4.49238e-08 30.3494 28.5739)" fill="white"/>
</svg>
