<svg width="31" height="23" viewBox="0 0 31 23" fill="none" xmlns="http://www.w3.org/2000/svg">
<rect width="30.0724" height="2.57554" transform="matrix(-1 -8.98476e-08 -8.50634e-08 1 30.3489 0.405396)" fill="white"/>
<rect width="8.77111" height="2.57554" transform="matrix(-1 -1.05899e-07 -7.217e-08 1 14.0591 5.55676)" fill="white"/>
<rect width="8.77111" height="2.57554" transform="matrix(-1 -1.05899e-07 -7.217e-08 1 26.5896 5.55676)" fill="white"/>
<rect width="30.0724" height="2.57554" transform="matrix(-1 -8.98476e-08 -8.50634e-08 1 30.3489 15.8589)" fill="white"/>
<rect width="10.0241" height="2.57554" transform="matrix(-1 -1.05899e-07 -7.217e-08 1 14.0591 10.7074)" fill="white"/>
<rect width="10.0241" height="2.57554" transform="matrix(-1 -1.05899e-07 -7.217e-08 1 26.5896 10.7074)" fill="white"/>
<rect width="18.0288" height="2.50603" transform="matrix(-4.25317e-08 -1 -1 4.49238e-08 2.78418 18.4342)" fill="white"/>
<rect width="6.43886" height="2.50603" transform="matrix(-3.96962e-08 -1 -1 4.81327e-08 6.54272 11.9955)" fill="white"/>
<rect width="16.741" height="2.50603" transform="matrix(-4.25317e-08 -1 -1 4.49238e-08 30.3489 18.4342)" fill="white"/>
<rect width="6.43886" height="2.50603" transform="matrix(-3.6085e-08 -1 -1 5.29496e-08 14.0591 11.9955)" fill="white"/>
<rect width="6.43886" height="2.50603" transform="matrix(-4.25317e-08 -1 -1 4.49238e-08 16.5654 22.2976)" fill="white"/>
</svg>
